<?xml version="1.0" encoding="UTF-8"?>
<svg width="350px" height="476px" viewBox="0 0 350 476" version="1.1" xmlns="http://www.w3.org/2000/svg" xmlns:xlink="http://www.w3.org/1999/xlink">
    <!-- Generator: Sketch 43.2 (39069) - http://www.bohemiancoding.com/sketch -->
    <title>Group 121</title>
    <desc>Created with Sketch.</desc>
    <defs></defs>
    <g id="Page-1" stroke="none" stroke-width="1" fill="none" fill-rule="evenodd">
        <g id="Group-121">
            <path d="M298.01155,472 C293.206714,472 288.89394,468.962848 287.273032,464.443219 C286.250316,461.57453 286.399864,458.484432 287.707204,455.740887 C289.009719,452.997343 291.31083,450.918025 294.181189,449.897618 C316.232296,442.037603 321.196328,434.504888 321.196328,432.483329 C321.196328,429.864929 314.191688,420.392479 283.061564,411.526498 C254.107124,403.29105 215.432058,398.756982 174.166433,398.756982 C132.567942,398.756982 93.8928759,403.29105 64.9384356,411.526498 C33.8131358,420.392479 26.8084961,429.864929 26.8084961,432.483329 C26.8084961,434.504888 31.772528,442.037603 53.8236354,449.902432 C56.6891698,450.918025 58.9902808,452.992529 60.2927964,455.736074 C61.6001362,458.479619 61.7545084,461.57453 60.7269683,464.443219 C59.1157082,468.958035 54.8029342,471.995187 49.9932746,471.995187 C48.6859348,471.995187 47.3930674,471.768965 46.1532655,471.326147 C18.1829481,461.362748 4,448.294811 4,432.483329 C4,420.045926 13.4890677,402.511306 58.6767122,389.650338 C89.6042225,380.851742 130.49839,376 173.838392,376 C217.50161,376 258.395777,380.851742 289.323288,389.650338 C334.515756,402.511306 344,420.045926 344,432.483329 C344,448.294811 329.817052,461.362748 301.846734,471.326147 C300.606933,471.773778 299.314065,472 298.01155,472" id="Fill-99" fill="#FFFFFF"></path>
            <path d="M174.163951,372 L173.836049,372 C130.15281,372 88.8757898,376.898812 57.6142335,385.783017 C19.3847689,396.662321 0,412.368326 0,432.473166 C0,450.164656 15.088294,464.505339 44.8405387,475.091388 C46.5138011,475.692322 48.2690389,476 50.0483871,476 C56.5678417,476 62.421849,471.879998 64.6110742,465.750474 C65.9998337,461.870845 65.7924842,457.683539 64.0179581,453.95775 C62.2482541,450.236768 59.1283671,447.424398 55.232125,446.044654 C37.3663119,439.679564 32.3899235,434.165395 31.1988693,432.434706 C33.0553708,429.612721 41.8797805,422.339019 66.1010974,415.445107 C94.6912205,407.320483 132.949618,402.844728 173.836049,402.844728 L174.163951,402.844728 C215.050382,402.844728 253.30878,407.320483 281.903725,415.445107 C306.120219,422.339019 314.944629,429.612721 316.801131,432.434706 C315.610076,434.165395 310.633688,439.679564 292.753409,446.049461 C288.866811,447.424398 285.746924,450.236768 283.97722,453.967365 C282.207516,457.688347 282.000166,461.870845 283.388926,465.755281 C285.587795,471.884806 291.441802,476 297.956435,476 C299.730961,476 301.486199,475.692322 303.169105,475.091388 C332.911706,464.505339 348,450.164656 348,432.473166 C348,412.368326 328.615231,396.662321 290.390589,385.783017 C259.12421,376.898812 217.84719,372 174.163951,372 M174.163951,380.115009 C217.123878,380.115009 257.610076,384.908057 288.157965,393.590348 C321.980047,403.214903 339.855504,416.661397 339.855504,432.473166 C339.855504,446.371562 326.589957,458.135441 300.425341,467.447511 C299.610409,467.740766 298.776189,467.880183 297.956435,467.880183 C294.947456,467.880183 292.126538,466.014885 291.056036,463.029446 C289.696209,459.226737 291.682907,455.044238 295.492351,453.693339 C317.399069,445.890815 325.201197,437.617159 325.201197,432.473166 C325.201197,426.406139 314.447955,416.267184 284.136349,407.637776 C254.856668,399.320852 215.802627,394.729718 174.163951,394.729718 L173.836049,394.729718 C132.197373,394.729718 93.1385101,399.320852 63.8636515,407.637776 C33.5520452,416.267184 22.7988028,426.406139 22.7988028,432.473166 C22.7988028,437.617159 30.6057532,445.890815 52.5076488,453.693339 C56.3219155,455.044238 58.3037912,459.226737 56.939142,463.029446 C55.8734619,466.019692 53.0525441,467.880183 50.0483871,467.880183 C49.2286332,467.880183 48.394413,467.740766 47.5794812,467.447511 C21.4100432,458.135441 8.14449618,446.371562 8.14449618,432.473166 C8.14449618,416.661397 26.0199534,403.214903 59.8420353,393.590348 C90.3899235,384.908057 130.8713,380.115009 173.836049,380.115009 L174.163951,380.115009" id="Fill-101" fill="#777776"></path>
            <path d="M173.43104,410.995186 C156.243927,410.614848 135.831519,400.451643 134.558756,372.98066 C133.936838,359.476259 140.237976,349.731908 143.574156,345.567449 C79.6708794,210.740093 4.45255222,49.7753436 6.02422089,42.4333791 C6.55935961,39.9635903 7.65856347,34.8169935 39.1787162,24.3264094 C55.9174697,18.7513308 75.9345505,13.5614043 90.1711688,11.1012444 C118.335857,6.23869739 171.488149,4.08665925 173.739588,4 L174.260264,4 C176.511703,4.08665925 229.668816,6.23869739 257.828684,11.1012444 C272.070123,13.5614043 292.087204,18.7513308 308.821136,24.3264094 C340.341289,34.8169935 341.445314,39.9635903 341.975632,42.4333791 C343.552121,49.7753436 268.333794,210.740093 204.430517,345.567449 C207.766697,349.731908 214.067835,359.476259 213.445917,372.98066 C212.173155,400.451643 191.760746,410.614848 174.573633,410.995186 L174.115632,411 L173.43104,410.995186 Z" id="Fill-103" fill="#FFFFFF"></path>
            <path d="M173.763361,0 L173.599108,0 L173.396208,0 L173.236786,0 L173.072533,0.00482441898 C170.811642,0.0964883796 117.284551,2.25782808 88.8060129,7.17873545 C74.351766,9.67778448 54.0617136,14.9364012 37.1098579,20.5809714 C5.92597961,30.9582966 2.26410824,36.7234773 1.19163403,41.740873 C0.302736499,45.8802245 -0.402584373,49.156005 70.4966561,201.520805 C100.042837,265.024632 130.072115,328.547757 138.279924,345.891543 C134.473124,351.304541 129.308822,361.127058 129.903031,374.008257 C131.304011,404.32973 153.821138,415.556153 172.797168,415.990351 L173.386546,416 L173.386546,415.995176 L173.45901,415.995176 L173.45901,416 L173.782685,415.995176 L173.787516,415.995176 L173.797178,415.995176 L174.202979,415.990351 L174.202979,415.985527 C193.290121,415.503085 215.700967,404.25254 217.097116,374.008257 C217.691325,361.127058 212.527023,351.304541 208.720223,345.891543 C216.932863,328.547757 246.95731,265.024632 276.508322,201.520805 C347.397901,49.156005 346.697411,45.8850489 345.808513,41.740873 C344.731208,36.7234773 341.069337,30.9582966 309.890289,20.5809714 C292.938434,14.9364012 272.648381,9.67778448 258.198965,7.17873545 C229.715596,2.25782808 176.188506,0.0964883796 173.922783,0.00482441898 L173.763361,0 Z M173.212631,407.846732 C173.318912,407.846732 173.415532,407.851556 173.497658,407.851556 L173.386546,407.851556 C173.173983,407.851556 173.05804,407.846732 173.05804,407.846732 L173.212631,407.846732 L173.212631,407.846732 Z M173.942107,407.846732 C173.942107,407.846732 173.826164,407.851556 173.613601,407.851556 L173.497658,407.851556 C173.584615,407.851556 173.681235,407.846732 173.787516,407.846732 L173.942107,407.846732 L173.942107,407.846732 Z M173.599108,8.14361924 C173.599108,8.14361924 228.527179,10.3194322 256.802816,15.2065686 C285.078454,20.0937051 336.199724,35.845433 337.83259,43.4438929 C339.460625,51.0471773 199.159743,347.025282 199.159743,347.025282 C199.159743,347.025282 209.700909,357.320592 208.952109,373.631952 C207.459341,405.86872 178.758579,407.764717 173.787516,407.846732 L173.212631,407.846732 C168.241568,407.764717 139.540806,405.86872 138.048038,373.631952 C137.299238,357.320592 147.840404,347.025282 147.840404,347.025282 C147.840404,347.025282 7.53469091,51.0471773 9.16755704,43.4438929 C10.8004232,35.845433 61.9168625,20.0937051 90.1973308,15.2065686 C118.472968,10.3194322 173.396208,8.14361924 173.396208,8.14361924 L173.599108,8.14361924 L173.599108,8.14361924 Z" id="Fill-105" fill="#777776"></path>
            <path d="M13.9696208,126 C9.02352941,126 5,121.96393 5,117.002423 C5,112.040915 9.02352941,108 13.9696208,108 L338.025549,108 C342.976471,108 347,112.040915 347,117.002423 C347,121.96393 342.976471,126 338.025549,126 L13.9696208,126 Z" id="Fill-107" fill="#FFFFFF"></path>
            <path d="M336.954782,104 L13.0452175,104 C5.85151875,104 0,109.832315 0,117.002406 C0,124.167685 5.85151875,130 13.0452175,130 L336.954782,130 C344.148481,130 350,124.167685 350,117.002406 C350,109.832315 344.148481,104 336.954782,104 M336.954782,112.122895 C339.658454,112.122895 341.845532,114.312419 341.845532,117.002406 C341.845532,119.692393 339.658454,121.877105 336.954782,121.877105 L13.0452175,121.877105 C10.3415455,121.877105 8.14963997,119.692393 8.14963997,117.002406 C8.14963997,114.312419 10.3415455,112.122895 13.0452175,112.122895 L336.954782,112.122895" id="Fill-109" fill="#777776"></path>
            <path d="M153,207 C153,196.506599 161.506599,188 172,188 C182.493401,188 191,196.506599 191,207 C191,217.493401 182.493401,226 172,226 C161.506599,226 153,217.493401 153,207" id="Fill-111" fill="#84BF41"></path>
            <path d="M153,207 C153,196.506599 161.506599,188 172,188 C182.493401,188 191,196.506599 191,207 C191,217.493401 182.493401,226 172,226 C161.506599,226 153,217.493401 153,207 Z" id="Stroke-113" stroke="#777776" stroke-width="1.689"></path>
            <path d="M159,18.9976825 C159,15.6882966 165.716201,13 174.002423,13 C182.283799,13 189,15.6882966 189,18.9976825 C189,22.3117034 182.283799,25 174.002423,25 C165.716201,25 159,22.3117034 159,18.9976825" id="Fill-115" fill="#FFFFFF"></path>
            <path d="M159,18.9976825 C159,15.6882966 165.716201,13 174.002423,13 C182.283799,13 189,15.6882966 189,18.9976825 C189,22.3117034 182.283799,25 174.002423,25 C165.716201,25 159,22.3117034 159,18.9976825 Z" id="Stroke-117" stroke="#777776" stroke-width="1.689"></path>
            <path d="M17,41 C17,41 61.7999447,32 174.202606,32 L173.797394,32 C286.204879,32 331,41 331,41" id="Stroke-119" stroke="#777776" stroke-width="1.182" stroke-linecap="round"></path>
        </g>
    </g>
</svg>