<?xml version="1.0" encoding="utf-8"?>
<!-- Generator: Adobe Illustrator 21.0.2, SVG Export Plug-In . SVG Version: 6.00 Build 0)  -->
<svg version="1.1" id="Layer_4_copy_4" xmlns="http://www.w3.org/2000/svg" xmlns:xlink="http://www.w3.org/1999/xlink" x="0px"
	 y="0px" viewBox="0 0 360 288" style="enable-background:new 0 0 360 288;" xml:space="preserve">
<style type="text/css">
	.st0{fill:#58595B;}
	.st1{fill:none;stroke:#8DC63F;stroke-width:1.81;stroke-miterlimit:10;}
	.st2{fill:url(#SVGID_1_);}
</style>
<g>
	<g>
		<path class="st0" d="M182.5,149.1h-0.5V149h1.2v0.1h-0.5v0.9h-0.1V149.1z"/>
		<path class="st0" d="M183.3,149h0.1v0.4h0c0-0.1,0.1-0.1,0.3-0.1h0.2c0.2,0,0.3,0.1,0.3,0.2v0.5H184v-0.5c0-0.1,0-0.2-0.3-0.2h0
			c-0.3,0-0.4,0.1-0.4,0.2v0.4h-0.1V149z"/>
		<path class="st0" d="M184.4,149.6c0-0.3,0.2-0.3,0.4-0.3h0.2c0.2,0,0.4,0.1,0.4,0.3v0.1h-0.8v0c0,0.2,0.1,0.2,0.3,0.2h0.2
			c0.2,0,0.2,0,0.2-0.1h0.1v0c0,0.2-0.1,0.2-0.4,0.2h-0.2c-0.2,0-0.3,0-0.3-0.3V149.6z M185.2,149.6c0-0.1-0.1-0.1-0.3-0.1h-0.2
			c-0.2,0-0.2,0-0.3,0.2L185.2,149.6L185.2,149.6z"/>
		<path class="st0" d="M186.2,149h0.8c0.2,0,0.3,0,0.3,0.3c0,0.2,0,0.3-0.3,0.3h-0.7v0.4h-0.1V149z M187.2,149.3
			c0-0.1-0.1-0.2-0.2-0.2h-0.7v0.4h0.7C187.1,149.5,187.2,149.5,187.2,149.3L187.2,149.3z"/>
		<path class="st0" d="M187.5,149h0.1v1h-0.1V149z"/>
		<path class="st0" d="M188.6,150L188.6,150c0,0.1-0.1,0.1-0.3,0.1h-0.3c-0.2,0-0.2-0.1-0.2-0.2v0c0-0.2,0.1-0.2,0.3-0.2h0.2
			c0.2,0,0.2,0,0.3,0.1h0v-0.1c0-0.1-0.1-0.1-0.3-0.1h-0.2c-0.2,0-0.2,0-0.2,0.1v0h-0.1v0c0-0.1,0.1-0.2,0.3-0.2h0.2
			c0.2,0,0.4,0,0.4,0.3v0.5L188.6,150L188.6,150z M188.6,149.8c0-0.1-0.1-0.1-0.3-0.1h-0.2c-0.2,0-0.2,0-0.2,0.1v0
			c0,0.1,0,0.1,0.2,0.1h0.2C188.6,150,188.6,149.9,188.6,149.8L188.6,149.8z"/>
		<path class="st0" d="M189,149.8h0.1v0c0,0.1,0,0.1,0.2,0.1h0.3c0.2,0,0.2,0,0.2-0.1v0c0-0.1,0-0.1-0.2-0.1h-0.4
			c-0.2,0-0.2-0.1-0.2-0.2v0c0-0.1,0.1-0.2,0.4-0.2h0.2c0.3,0,0.3,0.1,0.3,0.2v0h-0.1v0c0-0.1-0.1-0.1-0.2-0.1h-0.2
			c-0.2,0-0.2,0-0.2,0.1v0c0,0.1,0,0.1,0.1,0.1h0.3c0.2,0,0.3,0,0.3,0.2v0c0,0.2-0.2,0.2-0.3,0.2h-0.2
			C189.1,150.1,189,150.1,189,149.8L189,149.8z"/>
		<path class="st0" d="M190.1,149.4H190v-0.1L190.1,149.4v-0.3h0.1v0.2h0.5v0.1h-0.5v0.4c0,0.1,0,0.2,0.2,0.2h0c0.2,0,0.2,0,0.2-0.2
			v-0.1h0.1v0.1c0,0.1,0,0.3-0.3,0.3h-0.1c-0.2,0-0.3-0.1-0.3-0.2V149.4z"/>
		<path class="st0" d="M190.9,149h0.1v0.1h-0.1V149z M190.9,149.3h0.1v0.7h-0.1V149.3z"/>
		<path class="st0" d="M191.3,149.6c0-0.3,0.2-0.3,0.4-0.3h0.2c0.2,0,0.3,0.1,0.3,0.2v0h-0.1v0c0-0.1-0.1-0.1-0.2-0.1h-0.2
			c-0.1,0-0.2,0-0.2,0.2v0.2c0,0.2,0.1,0.2,0.2,0.2h0.2c0.1,0,0.2,0,0.2-0.2v0h0.1v0c0,0.2-0.1,0.3-0.3,0.3h-0.3
			c-0.1,0-0.3,0-0.3-0.3V149.6z"/>
		<path class="st0" d="M193.1,149h0.9c0.2,0,0.3,0.1,0.3,0.2v0.1c0,0.1,0,0.1-0.2,0.2v0c0.1,0,0.2,0,0.2,0.2v0.1
			c0,0.1-0.1,0.2-0.3,0.2h-0.9V149z M194.1,149.2c0-0.1-0.1-0.1-0.1-0.1h-0.7v0.3h0.7C194,149.5,194.1,149.4,194.1,149.2
			L194.1,149.2z M194.1,149.7c0-0.1-0.1-0.1-0.2-0.1h-0.7v0.4h0.7C194.1,149.9,194.1,149.9,194.1,149.7L194.1,149.7z"/>
		<path class="st0" d="M194.5,149h0.1v1h-0.1V149z"/>
		<path class="st0" d="M195.6,150L195.6,150c0,0.1-0.1,0.1-0.3,0.1h-0.3c-0.2,0-0.2-0.1-0.2-0.2v0c0-0.2,0.1-0.2,0.3-0.2h0.2
			c0.2,0,0.2,0,0.3,0.1h0v-0.1c0-0.1-0.1-0.1-0.3-0.1h-0.2c-0.2,0-0.2,0-0.2,0.1v0h-0.1v0c0-0.1,0.1-0.2,0.3-0.2h0.2
			c0.2,0,0.4,0,0.4,0.3v0.5L195.6,150L195.6,150z M195.6,149.8c0-0.1-0.1-0.1-0.3-0.1h-0.2c-0.2,0-0.2,0-0.2,0.1v0
			c0,0.1,0,0.1,0.2,0.1h0.2C195.6,150,195.6,149.9,195.6,149.8L195.6,149.8z"/>
		<path class="st0" d="M195.9,149.6c0-0.3,0.2-0.3,0.4-0.3h0.2c0.2,0,0.3,0.1,0.3,0.2v0h-0.1v0c0-0.1-0.1-0.1-0.2-0.1h-0.2
			c-0.1,0-0.2,0-0.2,0.2v0.2c0,0.2,0.1,0.2,0.2,0.2h0.2c0.1,0,0.2,0,0.2-0.2v0h0.1v0c0,0.2-0.1,0.3-0.3,0.3h-0.3
			c-0.1,0-0.3,0-0.3-0.3V149.6z"/>
		<path class="st0" d="M197,149h0.1v0.6h0.1l0.4-0.3h0.2l0,0l-0.5,0.3l0.6,0.4l0,0h-0.2l-0.5-0.4h-0.1v0.4H197V149z"/>
		<path class="st0" d="M198.8,149h0.1v0.4h0.9V149h0.1v1h-0.1v-0.5h-0.9v0.5h-0.1V149z"/>
		<path class="st0" d="M200.2,149.6c0-0.2,0.2-0.3,0.4-0.3h0.2c0.2,0,0.4,0.1,0.4,0.3v0.2c0,0.2-0.2,0.3-0.4,0.3h-0.2
			c-0.2,0-0.4-0.1-0.4-0.3V149.6z M201.1,149.6c0-0.2-0.1-0.2-0.2-0.2h-0.2c-0.1,0-0.2,0-0.2,0.2v0.1c0,0.2,0.1,0.2,0.2,0.2h0.2
			c0.1,0,0.2,0,0.2-0.2V149.6z"/>
		<path class="st0" d="M201.4,149h0.1v1h-0.1V149z"/>
		<path class="st0" d="M201.8,149.6c0-0.3,0.2-0.3,0.4-0.3h0.2c0.2,0,0.4,0.1,0.4,0.3v0.1h-0.8v0c0,0.2,0.1,0.2,0.3,0.2h0.2
			c0.2,0,0.2,0,0.2-0.1h0.1v0c0,0.2-0.1,0.2-0.4,0.2h-0.2c-0.2,0-0.3,0-0.3-0.3V149.6z M202.6,149.6c0-0.1-0.1-0.1-0.3-0.1h-0.2
			c-0.2,0-0.2,0-0.3,0.2L202.6,149.6L202.6,149.6z"/>
	</g>
	<g>
		<g>
			<path d="M178.2,142.5h-4.2v4.8h1.5v-1.2h3c1.1,0,1.4-0.8,1.4-1.5v-0.4C180,143.2,179.7,142.5,178.2,142.5z M178.5,144.4
				c0,0.3-0.1,0.5-0.5,0.5h-2.4v-1.2h2.3c0.5,0,0.6,0.2,0.6,0.5V144.4z"/>
			<path d="M187.2,142.5l-2,3.5h-3.1v-3.5h-1.5v4.8h3.9h1.1h0.7l0.4-0.8h3.1l0.5,0.8h1.7l-2.7-4.8H187.2z M187.2,145.4l1-1.8l1,1.8
				H187.2z"/>
			<path d="M195.4,144.3c-1.6,0-1.8,0-1.8-0.4c0-0.3,0.2-0.4,0.6-0.4h1.7c0.7,0,0.7,0.1,0.7,0.5h1.5v-0.2c0-0.8-0.2-1.4-1.9-1.4H194
				c-1.9,0-2,0.7-2,1.5c0,1.2,0.3,1.4,2.6,1.4c2,0,2.2,0,2.2,0.4c0,0.4-0.3,0.4-0.7,0.4h-1.9c-0.4,0-0.7,0-0.7-0.5H192v0.3
				c0,1,0.6,1.3,2,1.3h1.9c2,0,2.5-0.2,2.5-1.5C198.3,144.4,197.8,144.3,195.4,144.3z"/>
			<polygon points="198.5,142.5 198.5,143.7 200.7,143.7 200.7,147.3 202.2,147.3 202.2,143.7 204.4,143.7 204.4,142.5 			"/>
		</g>
		<g>
			<path d="M203.8,146.9c0,0.3-0.2,0.5-0.5,0.5c-0.3,0-0.5-0.2-0.5-0.5c0-0.3,0.2-0.5,0.5-0.5C203.6,146.4,203.8,146.6,203.8,146.9z
				 M202.9,146.9c0,0.2,0.2,0.4,0.4,0.4c0.2,0,0.4-0.2,0.4-0.4c0-0.2-0.2-0.4-0.4-0.4C203.1,146.5,202.9,146.7,202.9,146.9z
				 M203.2,147.2h-0.1v-0.5c0,0,0.1,0,0.2,0c0.1,0,0.1,0,0.2,0c0,0,0.1,0.1,0.1,0.1c0,0.1,0,0.1-0.1,0.1v0c0.1,0,0.1,0.1,0.1,0.1
				c0,0.1,0,0.1,0,0.1h-0.1c0,0,0-0.1,0-0.1c0-0.1,0-0.1-0.1-0.1h-0.1V147.2z M203.2,146.9L203.2,146.9c0.1,0,0.2,0,0.2-0.1
				c0,0,0-0.1-0.1-0.1c0,0-0.1,0-0.1,0V146.9z"/>
		</g>
	</g>
	<circle class="st1" cx="167.4" cy="144.7" r="3.9"/>
	<radialGradient id="SVGID_1_" cx="167.0796" cy="144.7389" r="13.916" gradientUnits="userSpaceOnUse">
		<stop  offset="0" style="stop-color:#8DC63F"/>
		<stop  offset="0.1825" style="stop-color:#8BC63F"/>
		<stop  offset="0.2622" style="stop-color:#83C441"/>
		<stop  offset="0.3219" style="stop-color:#76C043"/>
		<stop  offset="0.3714" style="stop-color:#60BB46"/>
		<stop  offset="0.3895" style="stop-color:#54B948"/>
		<stop  offset="0.7157" style="stop-color:#00A79D"/>
		<stop  offset="0.7189" style="stop-color:#00A69E"/>
		<stop  offset="0.8106" style="stop-color:#0092AE"/>
		<stop  offset="0.8913" style="stop-color:#1382B5"/>
		<stop  offset="0.9572" style="stop-color:#1B79B9"/>
		<stop  offset="1" style="stop-color:#1B75BC"/>
	</radialGradient>
	<path class="st2" d="M162.7,150.6c0.2-0.2,0.5-0.3,0.7-0.1l0,0c0.2,0.2,0.3,0.5,0.1,0.7l0,0c-0.2,0.2-0.5,0.3-0.7,0.1l0,0
		c0,0,0,0,0,0l0,0C162.6,151.2,162.5,150.9,162.7,150.6z M164,151.5c0.1-0.3,0.4-0.4,0.7-0.3l0,0c0.3,0.1,0.4,0.4,0.3,0.7l0,0
		c-0.1,0.3-0.4,0.4-0.7,0.3l0,0c0,0-0.1,0-0.1-0.1l0,0C164,152,163.9,151.7,164,151.5z M165.5,152.1c0.1-0.3,0.3-0.5,0.6-0.4l0,0
		c0.3,0.1,0.5,0.3,0.4,0.6l0,0c-0.1,0.3-0.3,0.5-0.6,0.4l0,0c0,0,0,0,0,0l0,0c-0.1,0-0.2-0.1-0.2-0.1l0,0
		C165.6,152.5,165.5,152.3,165.5,152.1z M159.8,147.3L159.8,147.3L159.8,147.3c-0.1-0.3,0.1-0.6,0.3-0.7l0,0
		c0.3-0.1,0.6,0.1,0.7,0.3l0,0c0.1,0.3-0.1,0.6-0.3,0.7l0,0c-0.2,0.1-0.4,0-0.5-0.1l0,0C159.8,147.4,159.8,147.4,159.8,147.3z
		 M167.1,152.3c0-0.3,0.2-0.5,0.5-0.5l0,0c0.3,0,0.5,0.2,0.5,0.5l0,0c0,0.3-0.2,0.5-0.5,0.5l0,0c-0.1,0-0.3,0-0.3-0.1l0,0
		C167.2,152.6,167.2,152.5,167.1,152.3z M159.4,145.6c0-0.3,0.2-0.5,0.5-0.6l0,0c0.3,0,0.5,0.2,0.6,0.5l0,0c0,0.3-0.2,0.5-0.5,0.6
		l0,0c-0.1,0-0.3,0-0.4-0.1l0,0C159.5,145.8,159.4,145.7,159.4,145.6z M168.8,152.2c-0.1-0.3,0.1-0.6,0.4-0.6l0,0
		c0.3-0.1,0.6,0.1,0.6,0.4l0,0c0.1,0.3-0.1,0.6-0.4,0.6l0,0c-0.2,0-0.3,0-0.5-0.1l0,0C168.9,152.4,168.8,152.3,168.8,152.2z
		 M159.4,143.8L159.4,143.8L159.4,143.8c0-0.3,0.3-0.5,0.6-0.5l0,0c0.3,0,0.5,0.3,0.5,0.6l0,0c0,0.3-0.3,0.5-0.6,0.5l0,0
		c-0.1,0-0.2-0.1-0.3-0.1l0,0C159.5,144.2,159.4,144,159.4,143.8z M172.5,150.3c-0.2-0.2-0.2-0.5,0-0.7l0,0c0.2-0.2,0.5-0.2,0.7,0
		l0,0c0.2,0.2,0.2,0.5,0,0.7l0,0c-0.1,0.1-0.3,0.2-0.4,0.2l0,0C172.7,150.4,172.6,150.4,172.5,150.3z M173.6,149.1
		c-0.2-0.1-0.3-0.5-0.2-0.7l0,0c0.1-0.2,0.5-0.3,0.7-0.2l0,0c0.2,0.1,0.3,0.5,0.2,0.7l0,0c-0.1,0.2-0.3,0.3-0.5,0.2l0,0
		C173.8,149.1,173.7,149.1,173.6,149.1z M159.8,142.2L159.8,142.2L159.8,142.2c0.1-0.3,0.4-0.4,0.7-0.3l0,0c0.3,0.1,0.4,0.4,0.3,0.7
		l0,0c-0.1,0.3-0.4,0.4-0.7,0.3l0,0c-0.1,0-0.1,0-0.2-0.1l0,0C159.8,142.6,159.7,142.4,159.8,142.2z M160.5,140.6
		C160.5,140.6,160.5,140.6,160.5,140.6L160.5,140.6c0.1-0.2,0.5-0.3,0.7-0.2l0,0c0.2,0.1,0.3,0.5,0.2,0.7l0,0
		c-0.1,0.2-0.5,0.3-0.7,0.2l0,0c0,0,0,0-0.1,0l0,0C160.4,141.1,160.4,140.8,160.5,140.6z M163.7,138.2c-0.1-0.3,0-0.6,0.2-0.7l0,0
		c0.3-0.1,0.6,0,0.7,0.2l0,0c0.1,0.3,0,0.6-0.2,0.7l0,0c-0.2,0.1-0.4,0-0.6-0.1l0,0C163.8,138.3,163.8,138.2,163.7,138.2z
		 M165.2,137.5c-0.1-0.3,0.1-0.6,0.4-0.6l0,0l0,0l0,0c0.3-0.1,0.6,0.1,0.6,0.4l0,0c0.1,0.3-0.1,0.6-0.4,0.6l0,0
		c-0.2,0-0.4,0-0.5-0.1l0,0C165.3,137.7,165.3,137.6,165.2,137.5z M166.8,137.2c0-0.3,0.2-0.5,0.5-0.5l0,0c0.3,0,0.5,0.2,0.5,0.5
		l0,0c0,0.3-0.2,0.5-0.5,0.5l0,0c-0.1,0-0.3-0.1-0.4-0.2l0,0C166.9,137.5,166.8,137.4,166.8,137.2z M168.4,137.3
		c0.1-0.3,0.3-0.5,0.6-0.4l0,0l0,0l0,0c0.3,0.1,0.5,0.3,0.4,0.6l0,0c-0.1,0.3-0.3,0.5-0.6,0.4l0,0c-0.1,0-0.2-0.1-0.3-0.1l0,0
		C168.5,137.6,168.4,137.5,168.4,137.3z M170,137.7c0.1-0.3,0.4-0.4,0.7-0.3l0,0c0,0,0,0,0,0l0,0c0.3,0.1,0.4,0.4,0.3,0.7l0,0
		c-0.1,0.3-0.4,0.4-0.7,0.3l0,0c-0.1,0-0.1-0.1-0.2-0.1l0,0C170,138.1,169.9,137.9,170,137.7z M173.5,141.4L173.5,141.4
		c-0.1-0.2-0.1-0.6,0.2-0.7l0,0c0.3-0.1,0.6,0,0.7,0.2l0,0c0.1,0.2,0,0.6-0.2,0.7l0,0c-0.2,0.1-0.5,0.1-0.6-0.1l0,0
		C173.6,141.4,173.6,141.4,173.5,141.4z M171.5,138.4c0.2-0.2,0.5-0.3,0.7-0.1l0,0c0.2,0.2,0.3,0.5,0.1,0.7l0,0
		c-0.2,0.2-0.5,0.3-0.7,0.1l0,0c0,0,0,0-0.1-0.1l0,0C171.3,138.9,171.3,138.6,171.5,138.4z M172.7,140.1c-0.2-0.2-0.2-0.5,0-0.7l0,0
		c0.2-0.2,0.5-0.2,0.7,0l0,0c0.2,0.2,0.2,0.5,0,0.7l0,0C173.2,140.4,172.9,140.3,172.7,140.1L172.7,140.1
		C172.7,140.1,172.7,140.1,172.7,140.1z M175.9,141.6c-0.3,0.1-0.7,0-0.8-0.3l0,0c-0.1-0.3,0-0.7,0.3-0.8l0,0c0.3-0.1,0.7,0,0.8,0.3
		l0,0c0,0,0,0,0,0l0,0c0,0.1,0.1,0.2,0.1,0.3l0,0C176.3,141.3,176.1,141.5,175.9,141.6z M176.1,149L176.1,149L176.1,149
		c-0.2,0.3-0.5,0.4-0.8,0.3l0,0c-0.3-0.2-0.4-0.5-0.3-0.8l0,0c0.2-0.3,0.5-0.4,0.8-0.3l0,0c0.2,0.1,0.3,0.3,0.3,0.5l0,0
		C176.2,148.8,176.1,148.9,176.1,149z M175.1,139.8c-0.3,0.2-0.7,0.1-0.9-0.1l0,0c-0.2-0.3-0.1-0.7,0.1-0.9l0,0
		c0.3-0.2,0.7-0.1,0.9,0.1l0,0c0.1,0.1,0.1,0.3,0.1,0.4l0,0C175.3,139.5,175.2,139.7,175.1,139.8z M175,150.8
		c-0.2,0.3-0.6,0.3-0.9,0.1l0,0c-0.3-0.2-0.3-0.6-0.1-0.9l0,0c0.2-0.3,0.6-0.3,0.9-0.1l0,0c0.1,0.1,0.2,0.3,0.2,0.4l0,0
		C175.1,150.5,175.1,150.6,175,150.8z M173.8,138.3c-0.2,0.3-0.6,0.3-0.9,0.1l0,0c-0.3-0.2-0.3-0.6-0.1-0.9l0,0
		c0.2-0.3,0.6-0.3,0.9-0.1l0,0c0.2,0.1,0.2,0.3,0.2,0.5l0,0C174,138.1,173.9,138.2,173.8,138.3z M173.5,152.3L173.5,152.3
		L173.5,152.3c-0.3,0.2-0.7,0.2-0.9-0.1l0,0c-0.2-0.3-0.2-0.7,0.1-0.9l0,0c0.3-0.2,0.7-0.2,0.9,0.1l0,0c0.1,0.1,0.1,0.2,0.1,0.3l0,0
		C173.8,151.9,173.7,152.1,173.5,152.3z M172.3,137.1c-0.2,0.3-0.5,0.4-0.8,0.2l0,0c-0.3-0.2-0.4-0.5-0.2-0.8l0,0
		c0.2-0.3,0.5-0.4,0.8-0.2l0,0c0.2,0.1,0.3,0.4,0.3,0.6l0,0C172.4,136.9,172.4,137,172.3,137.1z M171.8,153.4L171.8,153.4
		L171.8,153.4c-0.3,0.2-0.7,0-0.8-0.3l0,0c-0.2-0.3,0-0.7,0.3-0.8l0,0c0.3-0.2,0.7,0,0.8,0.3l0,0c0,0.1,0.1,0.1,0.1,0.2l0,0
		C172.1,153,172,153.3,171.8,153.4z M170.6,136.2c-0.1,0.3-0.4,0.5-0.8,0.4l0,0c-0.3-0.1-0.5-0.4-0.4-0.8l0,0
		c0.1-0.3,0.4-0.5,0.8-0.4l0,0c0.3,0.1,0.5,0.4,0.4,0.6l0,0C170.6,136.1,170.6,136.2,170.6,136.2z M169.8,154.1
		C169.8,154.1,169.8,154.1,169.8,154.1L169.8,154.1c-0.3,0.1-0.7-0.1-0.8-0.4l0,0c-0.1-0.3,0.1-0.7,0.4-0.8h0
		c0.3-0.1,0.7,0.1,0.8,0.4l0,0c0,0,0,0.1,0,0.1l0,0C170.3,153.7,170.1,154,169.8,154.1z M168,136.3L168,136.3
		c-0.3,0-0.6-0.3-0.6-0.7l0,0c0-0.3,0.3-0.6,0.7-0.6l0,0l0,0l0,0c0.3,0,0.6,0.3,0.6,0.7l0,0c0,0,0,0,0,0l0,0
		C168.6,136.1,168.3,136.3,168,136.3z M165,153.5c-0.1,0.3-0.5,0.5-0.8,0.4l0,0c-0.3-0.1-0.5-0.5-0.4-0.8l0,0
		c0.1-0.3,0.5-0.5,0.8-0.4l0,0c0.3,0.1,0.4,0.3,0.4,0.6l0,0C165,153.4,165,153.4,165,153.5z M163.8,137.1c-0.3,0.1-0.7,0-0.8-0.3
		l0,0c-0.1-0.3,0-0.7,0.3-0.8l0,0c0.3-0.1,0.7,0,0.8,0.3l0,0c0,0.1,0.1,0.2,0.1,0.3l0,0C164.1,136.8,164,137,163.8,137.1z
		 M163.2,152.8c-0.2,0.3-0.6,0.4-0.9,0.2l0,0l0,0l0,0c-0.3-0.2-0.4-0.6-0.2-0.9l0,0c0.2-0.3,0.6-0.4,0.9-0.2l0,0
		c0.2,0.1,0.3,0.3,0.3,0.5l0,0C163.3,152.6,163.3,152.7,163.2,152.8z M162.2,138c-0.3,0.2-0.7,0.2-0.9-0.1l0,0
		c-0.2-0.3-0.2-0.7,0.1-0.9l0,0l0,0l0,0c0.3-0.2,0.7-0.2,0.9,0.1l0,0c0.1,0.1,0.1,0.2,0.1,0.4l0,0
		C162.5,137.7,162.4,137.9,162.2,138z M161.6,151.7c-0.2,0.2-0.6,0.3-0.9,0l0,0c-0.2-0.2-0.3-0.6,0-0.9l0,0c0.2-0.2,0.6-0.3,0.9,0
		l0,0c0.1,0.1,0.2,0.3,0.2,0.4l0,0C161.7,151.4,161.7,151.6,161.6,151.7z M160.9,139.3c-0.2,0.3-0.6,0.3-0.9,0.1l0,0
		c-0.3-0.2-0.3-0.6-0.1-0.9l0,0l0,0l0,0c0.2-0.3,0.6-0.3,0.9-0.1l0,0c0.1,0.1,0.2,0.3,0.2,0.5l0,0C161.1,139,161,139.2,160.9,139.3z
		 M160.2,150.3c-0.3,0.2-0.7,0.1-0.9-0.2l0,0l0,0l0,0c-0.2-0.3-0.1-0.7,0.2-0.9l0,0c0.3-0.2,0.7-0.1,0.9,0.2l0,0
		c0.1,0.1,0.1,0.2,0.1,0.3l0,0C160.5,150,160.4,150.2,160.2,150.3z M159.2,148.6c-0.3,0.1-0.7,0-0.8-0.3l0,0c0,0,0,0,0,0l0,0
		c-0.1-0.3,0-0.7,0.3-0.8l0,0c0.3-0.1,0.7,0,0.8,0.3l0,0c0,0.1,0,0.1,0,0.2l0,0C159.6,148.3,159.4,148.6,159.2,148.6z M159.2,142.5
		L159.2,142.5c-0.1,0.3-0.4,0.5-0.8,0.4l0,0c-0.3-0.1-0.5-0.4-0.4-0.8l0,0c0.1-0.3,0.4-0.5,0.8-0.4l0,0c0.3,0.1,0.5,0.3,0.5,0.6l0,0
		C159.3,142.4,159.3,142.4,159.2,142.5z M159,144.3c0,0.3-0.3,0.6-0.7,0.6l0,0c-0.3,0-0.6-0.3-0.6-0.7l0,0c0-0.3,0.3-0.6,0.7-0.6
		l0,0C158.7,143.6,159,143.9,159,144.3L159,144.3C159,144.3,159,144.3,159,144.3z M177.2,149.6c-0.4-0.2-0.6-0.6-0.4-1l0,0
		c0.2-0.4,0.6-0.6,1-0.4l0,0c0.4,0.2,0.6,0.6,0.4,1l0,0c0,0,0,0,0,0l0,0C178,149.6,177.6,149.7,177.2,149.6z M177,151.4
		c-0.2,0.3-0.7,0.4-1,0.2l0,0c-0.3-0.2-0.4-0.7-0.2-1l0,0c0.2-0.3,0.7-0.4,1-0.2l0,0C177.1,150.5,177.2,150.9,177,151.4L177,151.4
		C177.1,151.3,177,151.3,177,151.4z M175.4,153.3L175.4,153.3L175.4,153.3c-0.3,0.3-0.8,0.3-1.1,0l0,0c-0.3-0.3-0.3-0.8,0-1.1l0,0
		c0.3-0.3,0.8-0.3,1.1,0l0,0c0.2,0.2,0.3,0.6,0.1,0.8l0,0C175.5,153.1,175.5,153.2,175.4,153.3z M173.4,154.8L173.4,154.8
		L173.4,154.8c-0.4,0.2-0.8,0.1-1-0.3l0,0c-0.2-0.4-0.1-0.8,0.3-1l0,0c0.4-0.2,0.8-0.1,1,0.3l0,0c0.1,0.2,0.1,0.5,0,0.7l0,0
		C173.6,154.6,173.5,154.7,173.4,154.8z M171.1,155.8c-0.4,0.1-0.8-0.1-1-0.5l0,0c-0.1-0.4,0.1-0.8,0.5-1l0,0
		c0.4-0.1,0.8,0.1,0.9,0.5l0,0c0.1,0.2,0,0.4,0,0.6l0,0C171.5,155.6,171.3,155.8,171.1,155.8z M177.9,141.6c-0.4,0.1-0.8-0.1-1-0.4
		l0,0c-0.1-0.4,0.1-0.8,0.4-1l0,0c0.4-0.1,0.8,0.1,1,0.4l0,0c0.1,0.2,0.1,0.5-0.1,0.7l0,0C178.2,141.4,178.1,141.5,177.9,141.6z
		 M168.7,156.4L168.7,156.4L168.7,156.4c-0.4,0-0.8-0.3-0.8-0.7l0,0c0-0.4,0.3-0.8,0.7-0.8l0,0c0.4,0,0.8,0.3,0.8,0.7l0,0
		c0,0.1,0,0.3-0.1,0.4l0,0C169.1,156.2,168.9,156.3,168.7,156.4z M177,139.4c-0.3,0.2-0.8,0.1-1-0.2l0,0c-0.2-0.4-0.1-0.8,0.2-1l0,0
		c0.3-0.2,0.8-0.1,1,0.2l0,0c0.2,0.3,0.2,0.6,0,0.8l0,0C177.2,139.3,177.1,139.4,177,139.4z M166.2,156.4L166.2,156.4L166.2,156.4
		c-0.4,0-0.7-0.4-0.7-0.8l0,0c0-0.4,0.4-0.7,0.8-0.7l0,0c0.4,0,0.7,0.4,0.7,0.8l0,0c0,0.1,0,0.2-0.1,0.3l0,0
		C166.8,156.2,166.5,156.4,166.2,156.4z M163.7,155.8C163.7,155.8,163.7,155.8,163.7,155.8L163.7,155.8c-0.4-0.1-0.6-0.6-0.5-0.9
		l0,0c0.1-0.4,0.6-0.6,1-0.5l0,0c0.4,0.1,0.6,0.6,0.5,1l0,0c0,0,0,0.1,0,0.1l0,0C164.5,155.8,164.1,155.9,163.7,155.8z M171.5,135.4
		L171.5,135.4c-0.4-0.2-0.6-0.6-0.4-1l0,0c0.2-0.4,0.6-0.6,1-0.4l0,0l0,0l0,0c0.4,0.2,0.6,0.6,0.4,1l0,0c0,0,0,0,0,0l0,0
		C172.3,135.4,171.8,135.6,171.5,135.4z M169.4,134.7c-0.4-0.1-0.7-0.5-0.6-0.9l0,0c0.1-0.4,0.5-0.7,0.9-0.6l0,0
		c0.4,0.1,0.7,0.5,0.6,0.9l0,0c0,0.1,0,0.1,0,0.2l0,0C170.1,134.6,169.7,134.8,169.4,134.7z M173.4,136.5L173.4,136.5
		c-0.3-0.2-0.4-0.7-0.2-1l0,0c0.2-0.3,0.7-0.4,1-0.2l0,0l0,0l0,0c0.3,0.2,0.4,0.7,0.2,1l0,0c0,0,0,0,0,0l0,0
		C174.2,136.6,173.7,136.7,173.4,136.5z M160.4,153.2c-0.3,0.3-0.8,0.3-1.1,0l0,0c-0.3-0.3-0.3-0.8,0-1.1l0,0c0.3-0.3,0.8-0.3,1.1,0
		l0,0c0.2,0.2,0.3,0.6,0.2,0.8l0,0C160.5,153,160.5,153.1,160.4,153.2z M167.2,134.5c-0.4,0-0.8-0.3-0.8-0.7l0,0
		c0-0.4,0.3-0.8,0.7-0.8l0,0c0.4,0,0.8,0.3,0.8,0.7l0,0c0,0.1,0,0.2-0.1,0.3l0,0C167.8,134.4,167.5,134.5,167.2,134.5z M158.8,151.5
		c-0.3,0.2-0.8,0.1-1-0.2l0,0l0,0l0,0c-0.2-0.3-0.1-0.8,0.2-1l0,0c0.3-0.2,0.8-0.1,1,0.2l0,0c0.2,0.2,0.2,0.5,0.1,0.7l0,0
		C159,151.3,158.9,151.4,158.8,151.5z M165,134.8c-0.4,0.1-0.8-0.2-0.9-0.6l0,0c-0.1-0.4,0.2-0.8,0.6-0.9l0,0l0,0l0,0
		c0.4-0.1,0.8,0.2,0.9,0.6l0,0c0,0.2,0,0.3,0,0.5l0,0C165.5,134.6,165.3,134.8,165,134.8z M157.5,149.5c-0.4,0.2-0.8,0-1-0.4l0,0
		c-0.2-0.4,0-0.8,0.4-1l0,0c0.4-0.2,0.8,0,1,0.4l0,0c0.1,0.2,0.1,0.4,0,0.6l0,0C157.9,149.3,157.7,149.4,157.5,149.5z M163,135.6
		c-0.4,0.2-0.8,0-1-0.4l0,0c-0.2-0.4,0-0.8,0.4-1l0,0l0,0l0,0c0.4-0.2,0.8,0,1,0.4l0,0c0.1,0.2,0.1,0.4,0,0.6l0,0
		C163.3,135.3,163.1,135.5,163,135.6z M156.7,147.3c-0.4,0.1-0.8-0.2-0.9-0.6l0,0l0,0l0,0c-0.1-0.4,0.2-0.8,0.6-0.9l0,0
		c0.4-0.1,0.8,0.2,0.9,0.6l0,0c0,0.1,0,0.3-0.1,0.4l0,0C157.2,147.1,157,147.2,156.7,147.3z M161.1,136.7c-0.3,0.3-0.8,0.2-1.1-0.1
		l0,0c-0.3-0.3-0.2-0.8,0.1-1.1l0,0c0.3-0.3,0.8-0.2,1.1,0.1l0,0c0.2,0.2,0.2,0.5,0.1,0.8l0,0C161.3,136.5,161.2,136.6,161.1,136.7z
		 M156.4,145c-0.4,0-0.7-0.4-0.7-0.8l0,0c0,0,0,0,0,0l0,0c0-0.4,0.4-0.7,0.8-0.7l0,0c0.4,0,0.7,0.4,0.7,0.8l0,0c0,0.1,0,0.2-0.1,0.3
		l0,0C157,144.8,156.8,145,156.4,145z M159.6,138.2L159.6,138.2c-0.3,0.3-0.7,0.4-1.1,0.1l0,0c-0.3-0.3-0.4-0.7-0.1-1.1l0,0
		c0.3-0.3,0.7-0.4,1.1-0.1l0,0c0.3,0.2,0.3,0.6,0.2,0.9l0,0C159.6,138.1,159.6,138.2,159.6,138.2z M156.6,142.6
		c-0.4-0.1-0.6-0.5-0.5-0.9l0,0c0.1-0.4,0.5-0.6,0.9-0.5l0,0c0.4,0.1,0.6,0.5,0.5,0.9l0,0c0,0,0,0.1,0,0.1l0,0
		C157.4,142.5,157,142.7,156.6,142.6z M158.4,140.1c-0.2,0.4-0.6,0.5-1,0.3l0,0c-0.4-0.2-0.5-0.6-0.3-1l0,0c0.2-0.4,0.6-0.5,1-0.3
		l0,0C158.4,139.2,158.5,139.6,158.4,140.1L158.4,140.1C158.4,140,158.4,140,158.4,140.1z M169.7,158.6c-0.5,0.1-1-0.3-1-0.7l0,0
		c-0.1-0.5,0.2-1,0.7-1l0,0c0.5-0.1,1,0.3,1,0.7l0,0c0.1,0.5-0.2,0.9-0.6,1l0,0C169.8,158.6,169.8,158.6,169.7,158.6z M174,156.2
		c-0.3-0.4-0.2-1,0.2-1.3l0,0c0.4-0.3,1-0.2,1.3,0.2l0,0c0.3,0.4,0.2,1-0.2,1.3l0,0c-0.1,0-0.2,0.1-0.2,0.1l0,0
		C174.7,156.6,174.3,156.5,174,156.2z M166.7,158.8L166.7,158.8L166.7,158.8c-0.5,0-0.9-0.4-0.9-0.9l0,0c0-0.5,0.4-0.9,0.9-0.9l0,0
		c0.5,0,0.9,0.4,0.9,0.9l0,0c0,0.4-0.3,0.7-0.6,0.8l0,0C166.9,158.8,166.8,158.8,166.7,158.8z M176.3,154.5c-0.4-0.3-0.4-0.9,0-1.3
		l0,0c0.3-0.4,0.9-0.4,1.3,0l0,0c0.4,0.3,0.4,0.9,0,1.3l0,0c0,0,0,0,0,0l0,0c-0.1,0.1-0.2,0.2-0.4,0.2l0,0
		C176.9,154.8,176.6,154.7,176.3,154.5z M163.7,158.3L163.7,158.3L163.7,158.3c-0.5-0.1-0.8-0.6-0.6-1.1l0,0
		c0.1-0.5,0.6-0.8,1.1-0.6l0,0c0.5,0.1,0.8,0.6,0.6,1.1l0,0c-0.1,0.3-0.3,0.5-0.6,0.6l0,0C164.1,158.4,163.9,158.4,163.7,158.3z
		 M178.2,152.4c-0.4-0.3-0.6-0.8-0.3-1.2l0,0c0.3-0.4,0.8-0.6,1.2-0.3l0,0c0.4,0.3,0.6,0.8,0.3,1.2l0,0c-0.1,0.2-0.3,0.3-0.5,0.4
		l0,0C178.7,152.5,178.4,152.5,178.2,152.4z M160.9,157.2c-0.4-0.2-0.6-0.8-0.4-1.2l0,0c0.2-0.4,0.8-0.6,1.2-0.4l0,0
		c0.4,0.2,0.6,0.8,0.4,1.2l0,0c-0.1,0.2-0.3,0.4-0.5,0.4l0,0C161.4,157.4,161.1,157.4,160.9,157.2z M179.6,149.9
		c-0.5-0.2-0.7-0.7-0.6-1.1l0,0c0.2-0.5,0.7-0.7,1.1-0.6l0,0c0.5,0.2,0.7,0.7,0.6,1.2l0,0c-0.1,0.3-0.3,0.5-0.6,0.6l0,0
		C180,150,179.8,150,179.6,149.9z M158.4,155.6L158.4,155.6L158.4,155.6c-0.4-0.3-0.4-0.9-0.1-1.3l0,0c0.3-0.4,0.9-0.4,1.3-0.1l0,0
		c0.4,0.3,0.4,0.9,0.1,1.3l0,0c-0.1,0.1-0.3,0.2-0.4,0.3l0,0C159,155.8,158.6,155.8,158.4,155.6z M156.3,153.4L156.3,153.4
		L156.3,153.4c-0.3-0.4-0.2-1,0.2-1.3l0,0c0.4-0.3,1-0.2,1.3,0.2l0,0c0.3,0.4,0.2,1-0.2,1.3l0,0c-0.1,0.1-0.2,0.1-0.3,0.1l0,0
		C156.9,153.8,156.5,153.7,156.3,153.4z M154.7,150.8C154.7,150.8,154.7,150.8,154.7,150.8L154.7,150.8c-0.2-0.5,0-1,0.4-1.2l0,0
		c0.5-0.2,1,0,1.2,0.4l0,0c0.2,0.5,0,1-0.4,1.2l0,0c0,0-0.1,0-0.1,0l0,0C155.4,151.4,154.9,151.2,154.7,150.8z M179.1,141L179.1,141
		c-0.2-0.5,0.1-1,0.6-1.1l0,0c0.5-0.2,1,0.1,1.1,0.6l0,0l0,0l0,0c0.2,0.5-0.1,1-0.6,1.1l0,0c0,0,0,0,0,0l0,0
		C179.7,141.7,179.2,141.4,179.1,141z M178,138.6c-0.3-0.4-0.1-1,0.3-1.2l0,0c0.4-0.2,1-0.1,1.2,0.3l0,0c0.3,0.4,0.1,1-0.3,1.2l0,0
		c-0.1,0-0.1,0.1-0.2,0.1l0,0C178.7,139.1,178.2,138.9,178,138.6z M154.2,145.2c-0.5,0-0.9-0.4-0.9-0.9l0,0c0-0.5,0.4-0.9,0.9-0.9
		l0,0c0.5,0,0.9,0.4,0.9,0.9l0,0c0,0.4-0.3,0.7-0.6,0.8l0,0C154.4,145.2,154.3,145.2,154.2,145.2z M176.4,136.4
		c-0.3-0.4-0.3-0.9,0.1-1.3l0,0c0.4-0.3,0.9-0.3,1.3,0.1l0,0c0.3,0.4,0.3,0.9-0.1,1.3l0,0c-0.1,0.1-0.2,0.2-0.3,0.2l0,0
		C177.1,136.8,176.7,136.7,176.4,136.4z M154.4,142.3c-0.5-0.1-0.8-0.6-0.7-1.1l0,0l0,0l0,0c0.1-0.5,0.6-0.8,1.1-0.7l0,0
		c0.5,0.1,0.8,0.6,0.7,1.1l0,0c-0.1,0.3-0.3,0.5-0.6,0.6l0,0C154.7,142.4,154.6,142.4,154.4,142.3z M174.5,134.7
		c-0.4-0.3-0.5-0.9-0.2-1.3l0,0c0.3-0.4,0.9-0.5,1.3-0.2l0,0l0,0l0,0c0.4,0.3,0.5,0.9,0.2,1.3l0,0c-0.1,0.2-0.3,0.3-0.5,0.3l0,0
		C175,134.9,174.7,134.9,174.5,134.7z M155.2,139.6c-0.4-0.2-0.6-0.8-0.4-1.2l0,0c0.2-0.4,0.8-0.6,1.2-0.4l0,0
		c0.4,0.2,0.6,0.8,0.4,1.2l0,0c-0.1,0.2-0.3,0.4-0.5,0.5l0,0C155.7,139.8,155.4,139.7,155.2,139.6z M172.2,133.4
		c-0.5-0.2-0.7-0.7-0.5-1.2l0,0c0.2-0.5,0.7-0.7,1.2-0.5l0,0l0,0l0,0c0.5,0.2,0.7,0.7,0.5,1.2l0,0c-0.1,0.3-0.3,0.4-0.6,0.5l0,0
		C172.6,133.5,172.4,133.5,172.2,133.4z M156.6,137.2c-0.4-0.3-0.4-0.9-0.1-1.3l0,0l0,0l0,0c0.3-0.4,0.9-0.4,1.3-0.1l0,0
		c0.4,0.3,0.4,0.9,0.1,1.3l0,0c-0.1,0.1-0.3,0.2-0.4,0.3l0,0C157.2,137.4,156.8,137.4,156.6,137.2z M167,132.5L167,132.5
		c-0.5,0-0.9-0.4-0.9-0.9l0,0c0-0.5,0.4-0.9,0.9-0.9l0,0c0.5,0,0.9,0.4,0.9,0.9l0,0c0,0.4-0.3,0.8-0.6,0.9l0,0
		C167.2,132.5,167.1,132.5,167,132.5z M160.7,133.3c-0.2-0.4,0-1,0.4-1.2l0,0c0.4-0.2,1,0,1.2,0.4l0,0c0.2,0.4,0,1-0.4,1.2l0,0
		c0,0-0.1,0-0.1,0.1l0,0C161.4,133.9,160.9,133.7,160.7,133.3z M164.4,132.8c-0.5,0.1-1-0.2-1.1-0.7l0,0c-0.1-0.5,0.2-1,0.7-1.1l0,0
		c0.5-0.1,1,0.2,1.1,0.7l0,0C165.2,132.2,164.9,132.7,164.4,132.8L164.4,132.8C164.4,132.8,164.4,132.8,164.4,132.8z"/>
</g>
<g>
</g>
<g>
</g>
<g>
</g>
<g>
</g>
<g>
</g>
<g>
</g>
</svg>
